<svg xmlns="http://www.w3.org/2000/svg" viewBox="0 0 111.41 111.41"><defs><style>.cls-1{fill:#4e3793;}.cls-2{fill:#fff;}</style></defs><title>about-menu-icon</title><g id="Layer_2" data-name="Layer 2"><g id="About"><path class="cls-1" d="M55.7,0a55.71,55.71,0,1,0,55.71,55.7A55.7,55.7,0,0,0,55.7,0Z"/><path class="cls-2" d="M68.58,38.78l.08-8.12H85.41V24H62V41q-3.85,1.38-7.93,3V23.72H50.37l-1.08,1.44c-2.26,3-4.06,4.15-8,4.51v5.58h5.94V46.84q-3.36,1.44-6.82,3c-1.15.53-2.29,1.06-3.42,1.6L38.16,51q4.62-1.8,9.05-3.37V69.76q3.34-.93,6.85-2V45.28c2.72-.89,5.37-1.7,7.93-2.43V57.68h6c2.62-2.7,4.6-3.6,6.94-3.6,2.88,0,4.15,1.62,4.15,5.05V76.24c0,3.25-1.54,4.78-4.6,4.78H73.25c-3.06,0-4.59-1.53-4.59-4.78V67.62c-2.38,1-4.72,2.06-7,3v5.43c0,7.75,3.78,11.53,11.35,11.53h1.8c7.66,0,11.53-3.87,11.53-11.71V57.77c0-6.48-4-10.36-9.73-10.36a12.52,12.52,0,0,0-8.1,3l.08-9.31c19.65-4.93,32.63-4.68,32,1.67-.17,1.7-1.31,3.72-3.26,6,3.74-3.92,5.92-7.36,6.08-10C103.82,31.56,89.61,32.05,68.58,38.78Z"/><polygon class="cls-2" points="31.39 83.69 30.36 81.64 29.02 81.64 30.85 84.83 30.85 87.53 32 87.53 32 84.83 33.86 81.64 32.51 81.64 31.39 83.69"/><polygon class="cls-2" points="37.98 82.64 37.98 81.64 34.93 81.64 34.93 87.53 37.98 87.53 37.98 86.53 36.08 86.53 36.08 84.94 37.91 84.94 37.91 83.94 36.08 83.94 36.08 82.64 37.98 82.64"/><path class="cls-2" d="M42.21,81.49h-.89l-2.29,6h1.21l.48-1.24h2.05l.45,1.24h1.23Zm-1.16,3.86.65-2.14h0l.74,2.14Z"/><path class="cls-2" d="M46.72,85.16h0l1.43,2.37h1.39L47.9,85.05a1.57,1.57,0,0,0,1.2-1.63c0-1.26-.81-1.78-2-1.78H45.58v5.89h1.14Zm0-2.58h.16c.61,0,1.07.14,1.07.87s-.44.9-1.08.9h-.15Z"/><path class="cls-2" d="M54.22,85.67c0-2-2.34-1.56-2.34-2.55a.7.7,0,0,1,.72-.66,1,1,0,0,1,.88.48l.54-.8a2.44,2.44,0,0,0-1.61-.65,1.71,1.71,0,0,0-1.71,1.76c0,.92.55,1.3,1.31,1.61.46.18,1,.35,1,1a.79.79,0,0,1-.76.85,1.2,1.2,0,0,1-1.06-.86l-.74.73a2.09,2.09,0,0,0,1.81,1.15A1.87,1.87,0,0,0,54.22,85.67Z"/><path class="cls-2" d="M29.38,73.69c2.14-.31,4.43-.72,6.84-1.23V23.72H32.53l-1.08,1.44c-2.25,3-4.05,4.15-8,4.51v5.58h5.95Z"/><path class="cls-2" d="M74.44,62.69l-1.2.47C37.88,77,9.94,80.63,10.84,71.39c.16-1.7,1.3-3.73,3.26-6-3.75,3.92-5.93,7.37-6.09,10-.6,10,27.6,5,63-11.15C72.16,63.76,73.3,63.23,74.44,62.69Z"/></g></g></svg>