<?xml version="1.0" encoding="utf-8"?>
<!-- Generator: Adobe Illustrator 22.0.1, SVG Export Plug-In . SVG Version: 6.00 Build 0)  -->
<svg version="1.1" id="Layer_1" xmlns="http://www.w3.org/2000/svg" xmlns:xlink="http://www.w3.org/1999/xlink" x="0px" y="0px"
	 viewBox="0 0 111.4 111.4" style="enable-background:new 0 0 111.4 111.4;" xml:space="preserve">
<style type="text/css">
	.st0{fill:#328AA0;}
	.st1{fill:#FFFFFF;}
</style>
<path class="st0" d="M55.7,0C24.9,0,0,24.9,0,55.7s24.9,55.7,55.7,55.7s55.7-24.9,55.7-55.7c0,0,0,0,0,0C111.4,24.9,86.5,0,55.7,0
	C55.7,0,55.7,0,55.7,0z"/>
<path class="st1" d="M86.1,47.7c0.5-0.4,1.2,0,1.2,0.6v25.3c0,3.3-2.7,5.9-5.9,5.9H30c-3.3,0-5.9-2.7-5.9-5.9V48.2
	c0-0.6,0.7-1,1.2-0.6c2.8,2.1,6.4,4.9,19,14c2.6,1.9,7,5.9,11.4,5.9c4.4,0,8.9-4,11.4-5.9C79.7,52.5,83.4,49.8,86.1,47.7z
	 M55.7,63.6c2.9,0,7-3.6,9.1-5.1c16.4-11.9,17.6-12.9,21.4-15.9c0.7-0.6,1.1-1.4,1.1-2.3v-2.3c0-3.3-2.7-5.9-5.9-5.9H30
	c-3.3,0-5.9,2.7-5.9,5.9v2.3c0,0.9,0.4,1.8,1.1,2.3c3.8,3,5,4,21.4,15.9C48.7,60,52.8,63.7,55.7,63.6L55.7,63.6z"/>
</svg>
