<svg xmlns="http://www.w3.org/2000/svg" viewBox="0 0 51.11 44.69"><defs><style>.cls-1{fill:#2f9474;}</style></defs><title>digital-marketing-menu-icon</title><g id="Layer_2" data-name="Layer 2"><g id="Marketing"><g id="Icons"><path class="cls-1" d="M30.72,36.24H13.39a1.58,1.58,0,0,0,0,3.15H30.72a1.58,1.58,0,1,0,0-3.15Z"/><path class="cls-1" d="M3.15,26.78V3.15H41V18.09h3.15V3a3,3,0,0,0-3-2.95H3A3,3,0,0,0,0,3V30.13a3,3,0,0,0,3,3h31V26.78Z"/><path class="cls-1" d="M50.33,40.52H35.83V22.08h14.5ZM41.51,20.29h3.14a.28.28,0,0,1,0,.56H41.51a.28.28,0,0,1,0-.56m8.6-1.09a1.57,1.57,0,0,0-.64-.14H36.69a1.64,1.64,0,0,0-1.64,1.65V43.05a1.64,1.64,0,0,0,1,1.51,1.66,1.66,0,0,0,.64.13H49.47a1.65,1.65,0,0,0,1.64-1.64V20.71a1.63,1.63,0,0,0-1-1.51"/></g></g></g></svg>