<svg xmlns="http://www.w3.org/2000/svg" viewBox="0 0 111.41 111.41"><defs><style>.cls-1{fill:#044d66;}.cls-2{fill:#fff;}</style></defs><title>it-menu-icon</title><g id="Layer_2" data-name="Layer 2"><g id="IT"><g id="Menu_Icon" data-name="Menu Icon"><path class="cls-1" d="M55.7,0a55.71,55.71,0,1,0,55.71,55.7A55.7,55.7,0,0,0,55.7,0Z"/><path class="cls-2" d="M53.29,30.12V27.74H32.94v4.77H53.29ZM28,30.12v-7h50.5v14H28Zm25.25,18.3V46H32.94V50.8H53.29ZM28,48.42v-7h50.5v5.87c0,3.23,0,5.86-.05,5.85l-.81-.41a15.34,15.34,0,0,0-4.81-1.55,20.5,20.5,0,0,0-4.43,0A15.73,15.73,0,0,0,60.26,55l-.46.44H28ZM52.23,88.21a4.41,4.41,0,0,1-2.8-2.33l-.15-.35h-13V83.08l6.41,0,6.4,0,.15-.41a4.3,4.3,0,0,1,2.39-2.5l.39-.16,0-3.15,0-3.15H28V59.62H56.79l-.22.48a15.73,15.73,0,0,0,.07,12.95l.29.62H54.48l0,3.15,0,3.15.38.16a4.29,4.29,0,0,1,2.4,2.5l.15.41,6.4,0,6.41,0v2.45h-13l-.15.35a4.36,4.36,0,0,1-2.83,2.33,5.65,5.65,0,0,1-2.09,0"/><path class="cls-2" d="M73.32,66.45a2.68,2.68,0,1,0-2.67,2.6,2.64,2.64,0,0,0,2.67-2.6m4.47.85-2.13.89a4.73,4.73,0,0,1-.2.47l.88,2.07L75.08,72l-2.14-.83-.49.2-.88,2.06H69.78l-.9-2a5.55,5.55,0,0,1-.52-.2l-2.1.84L65,70.75l.85-2.06c-.08-.16-.15-.34-.22-.51l-2.09-.85V65.6l2.09-.87a4.77,4.77,0,0,1,.22-.52l-.87-2L66.24,61l2.12.83a4.71,4.71,0,0,1,.52-.21l.88-2h1.78l.9,2.06a4.34,4.34,0,0,1,.5.2l2.12-.85,1.26,1.22-.86,2.08c.07.16.14.32.2.48l2.13.86Zm5.58-.85A12.71,12.71,0,1,0,70.66,79.16,12.71,12.71,0,0,0,83.37,66.45"/></g></g></g></svg>