<svg xmlns="http://www.w3.org/2000/svg" xmlns:xlink="http://www.w3.org/1999/xlink" viewBox="0 0 315.62 172.54"><defs><style>.cls-1{fill:url(#Purple_Red_Yellow);}.cls-2{fill:url(#Purple_Red_Yellow-2);}.cls-3{fill:#231f20;}.cls-4{fill:#d11f58;}</style><linearGradient id="Purple_Red_Yellow" x2="187.37" y1="138.79" y2="138.79" gradientTransform="matrix(1 -.09 0 1 0 14.39)" gradientUnits="userSpaceOnUse"><stop offset="0" stop-color="#00ab4e"/><stop offset=".45" stop-color="#005ead"/><stop offset=".66" stop-color="#742f6c"/><stop offset="1" stop-color="#ed1c24"/></linearGradient><linearGradient id="Purple_Red_Yellow-2" x1="111.82" x2="299.2" y1="31.14" y2="31.14" xlink:href="#Purple_Red_Yellow"/></defs><title>logo-115</title><g id="Layer_2"><g id="Layer_1-2"><path d="M184 123.37c-99.75 38.9-178.55 49.27-176 23.2.46-4.8 3.68-10.5 9.2-16.86C6.62 140.78.48 150.5 0 158c-1.7 28.26 77.85 14.18 177.7-31.44q4.85-2.22 9.64-4.5z" class="cls-1"/><path d="M115.2 49.17C214.94 10.27 293.74-.1 291.2 26c-.47 4.8-3.68 10.5-9.2 16.86 10.57-11.06 16.72-20.77 17.17-28.25 1.7-28.28-77.85-14.2-177.7 31.4q-4.85 2.22-9.65 4.48z" class="cls-2"/><path d="M27 93.83c-4.83 0-8.92-2.57-11.83-7.44l-.35-.6 6-5.86.44 1.28c.8 2.33 3 4.7 5.7 4.7 2.5 0 3.8-2.2 3.8-4.37 0-2.7-2-3.68-5.15-4.87l-.6-.23c-5.16-2.12-8.6-4.74-8.6-10.65a11.4 11.4 0 0 1 11.42-11.66c3.2 0 8 1.5 10.5 4.3l.44.5-4.35 6.43-.7-1a5.64 5.64 0 0 0-4.7-2.6A3.45 3.45 0 0 0 25.42 65c0 1.86 1.83 2.73 4.82 4 4 1.7 9.5 4 9.5 11.66 0 7.87-5.12 13.17-12.74 13.17zM48.9 92.88V55.1h10.4c8.87 0 13.35 4 13.35 12s-4.4 12.28-12.38 12.28h-2.64v13.5zm9.3-21c3.86 0 5.57-.68 5.57-4.74 0-3.8-1.85-4.46-5.75-4.46h-.4v9.2zM81.34 92.88v-37.8h20.36v7.85H90.08v6.23h11.2V77h-11.2v8.05h11.62v7.83H81.34zM128.66 93.83c-10.2 0-18.5-8.77-18.5-19.56 0-11.3 8.18-20.13 18.64-20.13a17.56 17.56 0 0 1 8.45 2.2l.44.25v11.3l-1.52-1.84a9.57 9.57 0 0 0-7.28-3.52c-6.35 0-9.77 6-9.77 11.6s3.63 11.3 9.72 11.3a10.17 10.17 0 0 0 7.35-3.55l1.5-1.72v11.2l-.5.22a20 20 0 0 1-8.54 2.23zM152.5 92.88V62.93h-7.27V55.1h23.28v7.83h-7.26v29.95h-8.74zM192.83 92.88l-7.52-12.5v12.5h-8.72V55.1H187c8.32 0 12.9 4.16 12.9 11.7 0 4.22-2.14 9.08-6.82 10.55l10.4 15.53zm-7.46-21.18c4.14 0 5.75-1.32 5.75-4.7s-1.5-4.46-5.7-4.46h-.1v9.16zM224.52 93.83c-9.2 0-14.25-5.8-14.25-16.3V55.1H219v21c0 5.12.66 9.86 5.5 9.86s5.5-4.7 5.5-9.82v-21h8.74v22.4c.03 10.46-5.03 16.3-14.22 16.3zM265.7 93.36l-7.02-20.3-2.84 19.82H247l6.37-38.74h6.3l8.28 22.15 7.93-22.16h6.42l5.65 38.74h-8.82l-2.54-19.8-7.26 20.28h-3.65zM75.26 118.72h-2.6V107.6h-2.72v-2.28h8v2.27h-2.7zM85.53 107.6v3h4.16v2.27h-4.17v3.62h4.32v2.27h-6.93v-13.4h6.93v2.27zM104.54 108.87a3.9 3.9 0 0 0-3-1.42c-2.5 0-3.94 2.3-3.94 4.62s1.5 4.5 3.92 4.5a4.07 4.07 0 0 0 3-1.4v3.1a7.05 7.05 0 0 1-3 .8 6.75 6.75 0 0 1-6.52-6.95c0-3.8 2.68-7.15 6.6-7.15a6.16 6.16 0 0 1 3 .78zM117.7 110.6v-5.28h2.62v13.4h-2.6v-6h-4.84v6h-2.6v-13.4h2.6v5.28zM126.24 105h1.9l7.04 9.36v-9h2.62V119h-1.9l-7.04-9.36v9.1h-2.6zM149.72 119.07c-4.1 0-6.63-3.12-6.63-7.07s2.62-7 6.62-7 6.62 3 6.62 7-2.54 7.07-6.62 7.07zm0-11.53a4.1 4.1 0 0 0-3.93 4.35c0 2.05 1 4.6 3.92 4.6s3.92-2.55 3.92-4.6a4.1 4.1 0 0 0-3.92-4.36zM164.24 116.44h3.7v2.28h-6.32v-13.4h2.62zM178.75 119.07c-4.08 0-6.62-3.12-6.62-7.07s2.63-7 6.62-7 6.63 3 6.63 7-2.54 7.07-6.63 7.07zm0-11.53a4.1 4.1 0 0 0-3.92 4.35c0 2.05 1 4.6 3.92 4.6s3.93-2.55 3.93-4.6a4.1 4.1 0 0 0-3.93-4.36zM202.5 111.6v.33c0 3.78-1.94 7.14-6.1 7.14-3.9 0-6.38-3.3-6.38-7s2.54-7.1 6.54-7.1a5.78 5.78 0 0 1 5.3 3.2l-2.32 1.24a3.4 3.4 0 0 0-3-2.12c-2.52 0-3.77 2.57-3.77 4.8s1.26 4.68 3.8 4.68a3.16 3.16 0 0 0 3.04-3h-2.83v-2.13zM210.4 118.72h-2.6v-13.4h2.6zM218.92 107.6v3h4.15v2.27h-4.15v3.62h4.3v2.27h-6.92v-13.4h6.93v2.27zM235.28 108.27a2.4 2.4 0 0 0-2-1.1 1.6 1.6 0 0 0-1.63 1.5c0 2.26 5.3 1.32 5.3 5.82a4.23 4.23 0 0 1-4.4 4.57 4.75 4.75 0 0 1-4.12-2.6l1.7-1.66a2.76 2.76 0 0 0 2.4 2 1.8 1.8 0 0 0 1.73-1.93c0-1.38-1.28-1.77-2.33-2.18-1.72-.72-3-1.6-3-3.67a3.9 3.9 0 0 1 3.9-4 5.48 5.48 0 0 1 3.67 1.5z" class="cls-3"/><path d="M221.3 164.55V138.5l-4.74 3.62v-5.32l4.74-3.8h4.7v31.56zM235.75 164.55V138.5L231 142.1v-5.32l4.74-3.8h4.7v31.55zM258.5 163a7.08 7.08 0 0 1-5 1.95 7.26 7.26 0 0 1-5.05-1.82c-1.3-1.2-2-2.7-2-5.27v-1.56h4.7v1.64c0 1.9 1 2.8 2.35 2.8a2.06 2.06 0 0 0 1.7-.8c.52-.7.74-1.82.74-5.6 0-3.36-.1-4.7-.62-5.53a2.08 2.08 0 0 0-1.82-1c-1.33 0-2.35.94-2.35 2.7v.68h-4.48V133h13.6v4.2H251v8.48a5.42 5.42 0 0 1 1.64-1.5 4.54 4.54 0 0 1 2.27-.6 4.9 4.9 0 0 1 4.26 1.92c1.1 1.33 1.5 3.28 1.5 8.82-.03 3.98-.08 6.5-2.16 8.68zM272.28 143v6.4h-2.57V143l-3.16-10h2.84l1.6 6.47 1.64-6.47h2.82zM276.84 149.36V133h6.86v2.32h-4.3V140h3.7v2.32h-3.7V147h4.3v2.32zM292.47 149.36l-.67-3.23H288l-.65 3.23h-2.7l4-16.34h2.5l4 16.34zM289.92 137l-1.4 6.84h2.8zM302.82 149.36l-2.14-6.7h-1.44v6.7h-2.57V133h4.13c3 0 4.17 1.45 4.17 4.82 0 2-.4 3.47-1.9 4.27l2.43 7.24zm-2-14h-1.58v5h1.58c1.38 0 1.58-1.15 1.58-2.5s-.2-2.52-1.58-2.52zM314.47 148.44a4.46 4.46 0 0 1-3.2 1.08 4.3 4.3 0 0 1-3.15-1.08c-.8-.78-1.06-1.8-1.06-3.5h2.57a2.6 2.6 0 0 0 .46 1.83 1.56 1.56 0 0 0 1.18.43 1.53 1.53 0 0 0 1.24-.45 2.6 2.6 0 0 0 .44-1.82c0-1.74-.28-2.18-1.54-2.68l-1.95-.8c-1.65-.7-2.27-1.6-2.27-4.1a4.45 4.45 0 0 1 1.33-3.48 4.65 4.65 0 0 1 5.74 0 4.67 4.67 0 0 1 1.14 3.56h-2.56a2.7 2.7 0 0 0-.4-1.75 1.34 1.34 0 0 0-1.14-.48 1.38 1.38 0 0 0-1.1.46 2.5 2.5 0 0 0-.43 1.6c0 1.34.2 1.75 1.35 2.2l1.93.8c1.95.8 2.48 1.83 2.48 4.58 0 1.68-.23 2.8-1.06 3.6z" class="cls-4"/><path d="M269.65 164.43v-8.17l-1.5 1.14v-1.67l1.5-1.2h1.48v9.9zM277 159.87l-1.73 4.56h-1.53l1.62-4a1 1 0 0 1-.6.17 1.63 1.63 0 0 1-1.3-.6c-.38-.47-.5-1-.5-2.46a3.68 3.68 0 0 1 .47-2.32 2 2 0 0 1 1.75-.8 2 2 0 0 1 1.74.8 3.7 3.7 0 0 1 .5 2.32 6.22 6.22 0 0 1-.42 2.33zm-1.26-3.87a.63.63 0 0 0-.53-.25.68.68 0 0 0-.53.25 5.7 5.7 0 0 0 0 3.14.7.7 0 0 0 .54.25.66.66 0 0 0 .54-.26 5.7 5.7 0 0 0 0-3.14zM282.7 164a2.24 2.24 0 0 1-1.56.58 2.3 2.3 0 0 1-1.6-.58 2.07 2.07 0 0 1-.6-1.64v-5.67a2.07 2.07 0 0 1 .6-1.65 2.3 2.3 0 0 1 1.6-.58 2.24 2.24 0 0 1 1.57.58 2.07 2.07 0 0 1 .63 1.64v5.66a2.07 2.07 0 0 1-.62 1.64zm-.84-7.37c0-.57-.32-.84-.72-.84a.73.73 0 0 0-.74.83v5.8a.73.73 0 0 0 .74.83c.4 0 .72-.27.72-.84zM288.63 164a2.34 2.34 0 0 1-1.58.57 2.28 2.28 0 0 1-1.6-.58 2 2 0 0 1-.6-1.65v-.58h1.46v.64c0 .58.33.85.75.85a.6.6 0 0 0 .5-.23c.18-.2.26-.53.26-1.38 0-1.05-.04-1.33-.2-1.54a.68.68 0 0 0-.57-.25h-.48v-1.24h.45a.64.64 0 0 0 .48-.18c.2-.24.22-.53.22-1.25s0-1-.2-1.17a.57.57 0 0 0-.48-.22c-.4 0-.67.26-.67.8v.68h-1.47v-.6a2 2 0 0 1 2.14-2.2 2.07 2.07 0 0 1 1.5.55 2.7 2.7 0 0 1 .65 2.07 3.3 3.3 0 0 1-.25 1.57 1.37 1.37 0 0 1-.54.58 1.8 1.8 0 0 1 .57.6 3.35 3.35 0 0 1 .3 1.82c.04 1.15-.03 1.76-.62 2.36zM290.84 160.2v-1.4h2.8v1.4zM294.6 164.43v-1.25l2.47-4.8a3.85 3.85 0 0 0 .4-1.77c0-.56-.3-.85-.7-.85a.73.73 0 0 0-.74.84v.63h-1.47v-.58a2.07 2.07 0 0 1 .6-1.64 2.33 2.33 0 0 1 1.6-.57 2.17 2.17 0 0 1 1.53.52 2.23 2.23 0 0 1 .65 1.7 5 5 0 0 1-.54 2.18l-2.23 4.28H299v1.33zM304.23 164a2.24 2.24 0 0 1-1.57.58 2.26 2.26 0 0 1-1.58-.58 2.07 2.07 0 0 1-.63-1.64v-5.67a2.07 2.07 0 0 1 .63-1.65 2.26 2.26 0 0 1 1.58-.58 2.24 2.24 0 0 1 1.57.58 2.07 2.07 0 0 1 .63 1.64v5.66a2.07 2.07 0 0 1-.63 1.64zm-.85-7.37c0-.57-.3-.84-.72-.84s-.73.26-.73.83v5.8c0 .56.33.83.73.83s.72-.27.72-.84zM307.84 164.43v-8.17l-1.5 1.14v-1.67l1.5-1.2h1.47v9.9zM315 164a2.44 2.44 0 0 1-3.16 0 2.9 2.9 0 0 1-.65-2.32 3.45 3.45 0 0 1 .28-1.75 1.93 1.93 0 0 1 .58-.63 2 2 0 0 1-.54-.6 3.3 3.3 0 0 1-.26-1.55 2.72 2.72 0 0 1 .64-2.1 2.3 2.3 0 0 1 3 0 2.72 2.72 0 0 1 .64 2.1 3.3 3.3 0 0 1-.26 1.54 2 2 0 0 1-.54.6 1.93 1.93 0 0 1 .58.63 3.56 3.56 0 0 1 .3 1.75A2.9 2.9 0 0 1 315 164zm-1-3.85a.7.7 0 0 0-.53-.24.74.74 0 0 0-.55.25c-.2.25-.22.63-.22 1.45a2.5 2.5 0 0 0 .22 1.43.73.73 0 0 0 .55.23.7.7 0 0 0 .53-.23 2.5 2.5 0 0 0 .22-1.43c-.07-.86-.1-1.24-.3-1.5zm-.1-4.2a.6.6 0 0 0-.43-.16.65.65 0 0 0-.46.15c-.16.18-.23.43-.23 1.28s.08 1.1.25 1.28a.63.63 0 0 0 .45.18.6.6 0 0 0 .44-.17c.18-.17.25-.42.25-1.27s-.15-1.14-.3-1.32z" class="cls-3"/></g></g></svg>