<svg xmlns="http://www.w3.org/2000/svg" xmlns:xlink="http://www.w3.org/1999/xlink" viewBox="0 0 394.69 147.4"><defs><style>.cls-1{fill:url(#Purple_Red_Yellow);}.cls-2{fill:url(#Spectrum_Left);}.cls-3{fill:#231f20;}</style><linearGradient id="Purple_Red_Yellow" x1="147.17" y1="30.47" x2="341.8" y2="30.47" gradientTransform="matrix(1, -0.09, 0, 1, 0, 16.89)" gradientUnits="userSpaceOnUse"><stop offset="0" stop-color="#00ab4e"/><stop offset="0.45" stop-color="#005ead"/><stop offset="0.66" stop-color="#742f6c"/><stop offset="1" stop-color="#ed1c24"/></linearGradient><linearGradient id="Spectrum_Left" x1="-4.48" y1="140.29" x2="185.06" y2="83.64" gradientTransform="matrix(1, 0, 0, 1, 0, 0)" xlink:href="#Purple_Red_Yellow"/></defs><title>logo</title><g id="Layer_2" data-name="Layer 2"><g id="Layer_1-2" data-name="Layer 1"><path class="cls-1" d="M150.67,45.07C254.28,9.42,336.14-.1,333.5,23.81c-.49,4.4-3.83,9.63-9.56,15.45,11-10.14,17.37-19,17.83-25.9,1.78-25.9-80.86-13-184.57,28.82q-5.05,2-10,4.11Z"/><path class="cls-2" d="M191.13,102.34C87.52,138,5.66,147.5,8.31,123.6c.48-4.4,3.82-9.63,9.55-15.45C6.88,118.28.5,127.18,0,134-1.74,160,80.89,147,184.61,105.22q5-2,10-4.11Z"/><path class="cls-3" d="M207.62,127H204.3V112.82h-3.44v-2.89h10.2v2.89h-3.44Z"/><path class="cls-3" d="M219,112.82v3.75h5.29v2.9H219v4.61h5.5V127h-8.82v-17h8.82v2.89Z"/><path class="cls-3" d="M241.49,114.45a4.93,4.93,0,0,0-3.76-1.81c-3.18,0-5,2.94-5,5.88s1.9,5.74,5,5.74a5.22,5.22,0,0,0,3.78-1.81v4a9,9,0,0,1-3.87,1,8.59,8.59,0,0,1-8.34-8.83c0-4.84,3.42-9.11,8.41-9.11a8,8,0,0,1,3.8,1Z"/><path class="cls-3" d="M256.55,116.64v-6.71h3.32v17h-3.32v-7.61H250.4V127h-3.32v-17h3.32v6.71Z"/><path class="cls-3" d="M265.71,109.48h2.39l9,11.91h0V109.93h3.32v17.38h-2.39l-9-11.91h0V127h-3.32Z"/><path class="cls-3" d="M293.87,127.42c-5.19,0-8.43-4-8.43-9s3.35-9,8.43-9,8.43,3.89,8.43,9S299.07,127.42,293.87,127.42Zm0-14.66c-3.14,0-5,2.77-5,5.53s1.31,5.86,5,5.86,5-3.24,5-5.86S297,112.76,293.87,112.76Z"/><path class="cls-3" d="M310.65,124.08h4.7V127h-8v-17h3.32Z"/><path class="cls-3" d="M327.43,127.42c-5.2,0-8.43-4-8.43-9s3.34-9,8.43-9,8.43,3.89,8.43,9S332.63,127.42,327.43,127.42Zm0-14.66c-3.14,0-5,2.77-5,5.53s1.31,5.86,5,5.86,5-3.24,5-5.86S330.57,112.76,327.43,112.76Z"/><path class="cls-3" d="M355.94,117.91v.43c0,4.81-2.47,9.08-7.75,9.08-5,0-8.12-4.2-8.12-8.9,0-4.86,3.23-9,8.32-9a7.35,7.35,0,0,1,6.73,4.07l-2.93,1.58a4.34,4.34,0,0,0-3.89-2.71c-3.21,0-4.79,3.27-4.79,6.1s1.6,6,4.81,6a4,4,0,0,0,3.89-3.87h-3.62v-2.71Z"/><path class="cls-3" d="M364.31,127H361v-17h3.33Z"/><path class="cls-3" d="M373.44,112.82v3.75h5.29v2.9h-5.29v4.61h5.49V127h-8.81v-17h8.81v2.89Z"/><path class="cls-3" d="M392.56,113.68a3,3,0,0,0-2.55-1.4,2,2,0,0,0-2.08,1.92c0,2.87,6.76,1.67,6.76,7.39,0,3.42-2.13,5.83-5.61,5.83a6,6,0,0,1-5.24-3.32L386,122a3.5,3.5,0,0,0,3.07,2.49,2.28,2.28,0,0,0,2.19-2.47c0-1.76-1.62-2.26-3-2.78-2.19-.9-3.8-2-3.8-4.65a5,5,0,0,1,5-5.11,7,7,0,0,1,4.65,1.9Z"/><path class="cls-3" d="M47.09,96.45c-5.52,0-10.2-2.94-13.52-8.51l-.41-.67L40,80.53l.52,1.5c.91,2.64,3.43,5.33,6.47,5.33,2.82,0,4.3-2.49,4.3-5,0-3.06-2.32-4.18-5.86-5.53l-.65-.26C38.92,74.19,35,71.2,35,64.45A13,13,0,0,1,48,51.11c3.66,0,9.1,1.72,12,4.92l.53.58-5,7.39-.84-1.14a6.42,6.42,0,0,0-5.36-3,3.9,3.9,0,0,0-4,3.64c0,2.1,2.08,3.09,5.48,4.53C55.36,70,61.63,72.62,61.63,81.37,61.63,90.39,55.78,96.45,47.09,96.45Z"/><path class="cls-3" d="M74.74,95.36V52.2H86.66c10.12,0,15.25,4.64,15.25,13.77s-5,14-14.16,14h-3V95.36Zm10.66-24c4.37,0,6.32-.78,6.32-5.39,0-4.33-2-5.06-6.53-5.06h-.42V71.31Z"/><polygon class="cls-3" points="114.48 95.36 114.48 52.2 137.77 52.2 137.77 61.19 124.5 61.19 124.5 68.25 137.28 68.25 137.28 77.24 124.5 77.24 124.5 86.38 137.77 86.38 137.77 95.36 114.48 95.36"/><path class="cls-3" d="M171.21,96.45c-11.66,0-21.14-10-21.14-22.34,0-12.9,9.35-23,21.3-23A20,20,0,0,1,181,53.64l.52.28v13l-1.77-2.17a10.89,10.89,0,0,0-8.29-4c-7.22,0-11.12,6.8-11.12,13.19s4.14,12.87,11.07,12.87a11.55,11.55,0,0,0,8.36-4l1.75-2V93.63l-.57.27A22.92,22.92,0,0,1,171.21,96.45Z"/><polygon class="cls-3" points="201.1 95.36 201.1 61.19 192.8 61.19 192.8 52.2 219.42 52.2 219.42 61.19 211.12 61.19 211.12 95.36 201.1 95.36"/><path class="cls-3" d="M249.84,95.36l-8.53-14.17V95.36h-10V52.2h11.87c9.51,0,14.75,4.76,14.75,13.39,0,4.81-2.44,10.35-7.77,12L262,95.36Zm-8.5-24.22c4.71,0,6.54-1.49,6.54-5.33s-1.7-5.06-6.48-5.06h-.09V71.14Z"/><path class="cls-3" d="M288.72,96.45c-10.5,0-16.28-6.61-16.28-18.63V52.2h10v24c0,5.83.76,11.23,6.26,11.23S295,82.07,295,76.24v-24h10V77.82C305,89.84,299.22,96.45,288.72,96.45Z"/><polygon class="cls-3" points="338.39 95.91 330.42 72.82 327.19 95.36 317.07 95.36 324.33 51.11 331.55 51.11 340.99 76.33 350.02 51.11 357.38 51.11 363.84 95.36 353.72 95.36 350.84 72.85 342.59 95.91 338.39 95.91"/></g></g></svg>