<svg xmlns="http://www.w3.org/2000/svg" viewBox="0 0 111.41 111.41"><defs><style>.cls-1{fill:#fff;}.cls-2{fill:#2f9474;}</style></defs><title>marketing-menu-icon</title><g id="Layer_2" data-name="Layer 2"><g id="Marketing"><g id="Menu_Icon" data-name="Menu Icon"><polygon class="cls-1" points="65.56 58.04 65.56 87.56 77.56 87.56 77.56 47.07 76.87 46.35 65.56 58.04"/><polygon class="cls-1" points="25.65 87.56 37.65 87.56 37.65 61.47 25.65 73.87 25.65 87.56"/><polygon class="cls-1" points="45.67 63.6 45.67 87.56 57.56 87.56 57.56 66.31 52.86 71.16 45.67 63.6"/><polygon class="cls-1" points="60.71 23.8 69.71 33.07 52.84 50.46 40.56 37.8 25.56 53.27 25.56 68.08 40.56 52.46 52.84 65.15 76.84 40.48 85.84 49.75 85.84 23.8 60.71 23.8"/><path class="cls-2" d="M55.7,0a55.71,55.71,0,1,0,55.71,55.7A55.7,55.7,0,0,0,55.7,0ZM37.65,87.56h-12V73.87l12-12.4Zm19.91,0H45.67v0l0,0h0v-24l7.19,7.56,4.7-4.85Zm20,0h-12V58L76.87,46.35l.69.72Zm8.28-37.81-9-9.27-24,24.67L40.56,52.46l-15,15.62V53.27l15-15.47L52.84,50.46,69.71,33.07l-9-9.27H85.84Z"/></g></g></g></svg>