<svg xmlns="http://www.w3.org/2000/svg" viewBox="0 0 47.3 51.88"><defs><style>.cls-1{fill:#2f9474;}</style></defs><title>print-marketing-menu-icon</title><g id="Layer_2" data-name="Layer 2"><g id="Marketing"><g id="Icons"><path class="cls-1" d="M2.26,29.88a.18.18,0,0,1,.24-.17l7.55,2.76a.35.35,0,0,1,.24.34V44.62a.18.18,0,0,1-.24.17L2.5,42a.36.36,0,0,1-.24-.34ZM8.5,22.82v1.39a.18.18,0,0,1-.23.17l-4-1.46A.37.37,0,0,1,4,22.58V21.19A.18.18,0,0,1,4.28,21l4,1.45a.37.37,0,0,1,.23.35M2.26,15.24a.17.17,0,0,1,.24-.16l7.55,2.75a.37.37,0,0,1,.24.35v2.91a.18.18,0,0,1-.24.17L2.5,18.5a.35.35,0,0,1-.24-.34ZM.72,44.81l11.62,4.24a.53.53,0,0,0,.72-.5V5.28a1.08,1.08,0,0,0-.72-1L.72,0A.54.54,0,0,0,0,.53V43.79a1.1,1.1,0,0,0,.72,1"/><path class="cls-1" d="M26.72,31.15a.35.35,0,0,1-.25.33l-7.94,2.24a.19.19,0,0,1-.24-.18v-.75a.35.35,0,0,1,.24-.33l7.94-2.24a.19.19,0,0,1,.25.18Zm-3.07,5a.34.34,0,0,1-.25.33l-4.87,1.38a.19.19,0,0,1-.24-.19v-.75a.33.33,0,0,1,.24-.32l4.87-1.38a.19.19,0,0,1,.25.18ZM18.29,25.24v-.75a.33.33,0,0,1,.25-.32l3.15-.81a.2.2,0,0,1,.24.19v.75a.33.33,0,0,1-.24.32l-3.15.81a.2.2,0,0,1-.25-.19m.25,3.08,6.09-1.69a.19.19,0,0,1,.24.19v.75a.33.33,0,0,1-.24.32l-6.09,1.69a.2.2,0,0,1-.25-.19v-.75a.33.33,0,0,1,.25-.32m-.25-7.76V10.79L26.72,8.4v9.77ZM16.84,49.34l.28-.08,1-.29,10.29-2.91a1,1,0,0,0,.73-1V1.84a.57.57,0,0,0-.73-.55L18.14,4.19l-1,.29-.28.08a1,1,0,0,0-.74,1V48.79a.58.58,0,0,0,.74.55"/><path class="cls-1" d="M32.91,46.21l.31.12,1,.42,12.35,5.09a.51.51,0,0,0,.71-.47V8.12a1.13,1.13,0,0,0-.71-1L34.24,2l-1-.42-.31-.13a.51.51,0,0,0-.7.47V45.15a1.16,1.16,0,0,0,.7,1.06"/></g></g></g></svg>