<svg xmlns="http://www.w3.org/2000/svg" viewBox="0 0 111.41 111.41"><defs><style>.cls-1{fill:#9f1e5b;}.cls-2{fill:#fff;}</style></defs><title>printers-copiers-menu-icon</title><g id="Layer_2" data-name="Layer 2"><g id="Printers_Copiers" data-name="Printers &amp; Copiers"><g id="Option_2_copy" data-name="Option 2 copy"><g id="Menu_Icon_copy_2" data-name="Menu Icon copy 2"><path class="cls-1" d="M55.7,0a55.71,55.71,0,1,0,55.71,55.7A55.7,55.7,0,0,0,55.7,0Z"/><path class="cls-2" d="M48.17,80.05H64.62v2.64H48.17Zm0-5.66H64.62V77H48.17Zm0-5.79H64.62v2.64H48.17ZM43.69,87.29H69.23V65.58H43.69Z"/><polygon class="cls-2" points="61.86 25.43 61.86 31.48 67.91 31.48 61.86 25.43"/><polygon class="cls-2" points="69.23 34.12 59.22 34.12 59.22 24.11 43.69 24.11 43.69 45.7 69.23 45.7 69.23 34.12"/><path class="cls-2" d="M36.72,56h-.4a1.32,1.32,0,0,1,0-2.64h.4a1.32,1.32,0,0,1,0,2.64m-5.67,0h-.39a1.32,1.32,0,0,1,0-2.64h.39a1.32,1.32,0,0,1,0,2.64M85.42,40H71.86V45.7h2.76v2.63H38.43V45.7h2.76V40H27.5a2.63,2.63,0,0,0-2.63,2.63V72.55a2.63,2.63,0,0,0,2.63,2.63H41.06v-9.6H38.29V62.94h36.2v2.64H71.73v9.6H85.42a2.63,2.63,0,0,0,2.63-2.63V42.67A2.63,2.63,0,0,0,85.42,40"/></g></g></g></g></svg>